<svg xmlns="http://www.w3.org/2000/svg" xmlns:xlink="http://www.w3.org/1999/xlink" width="500" zoomAndPan="magnify" viewBox="0 0 375 374.999991" height="500" preserveAspectRatio="xMidYMid meet" version="1.0"><defs><clipPath id="759a7009fb"><path d="M 249 263 L 262.5 263 L 262.5 277 L 249 277 Z M 249 263 " clip-rule="nonzero"/></clipPath><clipPath id="e771c72ae0"><path d="M 0 194.5 L 251 194.5 L 251 375 L 0 375 Z M 0 194.5 " clip-rule="nonzero"/></clipPath><clipPath id="e49d1ee458"><path d="M 53 30.347656 L 318 30.347656 L 318 340.097656 L 53 340.097656 Z M 53 30.347656 " clip-rule="nonzero"/></clipPath><clipPath id="416e9a9396"><path d="M 61 39.210938 L 311 39.210938 L 311 331.710938 L 61 331.710938 Z M 61 39.210938 " clip-rule="nonzero"/></clipPath><clipPath id="d481b5d5b2"><path d="M 97 94.386719 L 183 94.386719 L 183 276.636719 L 97 276.636719 Z M 97 94.386719 " clip-rule="nonzero"/></clipPath><clipPath id="c722ac5d16"><path d="M 190 94.386719 L 276 94.386719 L 276 276.636719 L 190 276.636719 Z M 190 94.386719 " clip-rule="nonzero"/></clipPath></defs><rect x="-37.5" width="450" fill="#ffffff" y="-37.499999" height="449.999989" fill-opacity="1"/><rect x="-37.5" width="450" fill="#000000" y="-37.499999" height="449.999989" fill-opacity="1"/><path fill="#ffffff" d="M 247.265625 298.355469 L 197.011719 298.355469 L 197.011719 296.886719 L 247.265625 296.886719 L 247.265625 298.355469 " fill-opacity="1" fill-rule="nonzero"/><g clip-path="url(#759a7009fb)"><path fill="#ffffff" d="M 256.132812 274.121094 C 253.90625 274.121094 252.097656 272.316406 252.097656 270.085938 C 252.097656 267.855469 253.90625 266.046875 256.132812 266.046875 C 258.363281 266.046875 260.171875 267.855469 260.171875 270.085938 C 260.171875 272.316406 258.363281 274.121094 256.132812 274.121094 Z M 256.132812 263.679688 C 252.59375 263.679688 249.726562 266.546875 249.726562 270.085938 C 249.726562 273.621094 252.59375 276.488281 256.132812 276.488281 C 259.671875 276.488281 262.539062 273.621094 262.539062 270.085938 C 262.539062 266.546875 259.671875 263.679688 256.132812 263.679688 " fill-opacity="1" fill-rule="nonzero"/></g><path fill="#ffffff" d="M 210.3125 317.433594 C 208.082031 317.433594 206.273438 315.625 206.273438 313.394531 C 206.273438 311.164062 208.082031 309.355469 210.3125 309.355469 C 212.539062 309.355469 214.347656 311.164062 214.347656 313.394531 C 214.347656 315.625 212.539062 317.433594 210.3125 317.433594 Z M 210.3125 306.988281 C 206.773438 306.988281 203.90625 309.859375 203.90625 313.394531 C 203.90625 316.933594 206.773438 319.800781 210.3125 319.800781 C 213.847656 319.800781 216.714844 316.933594 216.714844 313.394531 C 216.714844 309.859375 213.847656 306.988281 210.3125 306.988281 " fill-opacity="1" fill-rule="nonzero"/><path fill="#ffffff" d="M 77.730469 301.554688 C 75.292969 301.554688 73.3125 303.53125 73.3125 305.972656 C 73.3125 308.410156 75.292969 310.390625 77.730469 310.390625 C 80.171875 310.390625 82.148438 308.410156 82.148438 305.972656 C 82.148438 303.53125 80.171875 301.554688 77.730469 301.554688 " fill-opacity="1" fill-rule="nonzero"/><path fill="#ffffff" d="M 250.585938 293.207031 C 248.148438 293.207031 246.167969 295.183594 246.167969 297.621094 C 246.167969 300.0625 248.148438 302.039062 250.585938 302.039062 C 253.027344 302.039062 255.007812 300.0625 255.007812 297.621094 C 255.007812 295.183594 253.027344 293.207031 250.585938 293.207031 " fill-opacity="1" fill-rule="nonzero"/><path fill="#ffffff" d="M 208.324219 250.859375 C 205.882812 250.859375 203.90625 252.832031 203.90625 255.273438 C 203.90625 257.714844 205.882812 259.691406 208.324219 259.691406 C 210.761719 259.691406 212.738281 257.714844 212.738281 255.273438 C 212.738281 252.832031 210.761719 250.859375 208.324219 250.859375 " fill-opacity="1" fill-rule="nonzero"/><path fill="#ffffff" d="M 182.933594 290.515625 C 181.394531 290.515625 180.148438 289.269531 180.148438 287.730469 C 180.148438 286.191406 181.394531 284.945312 182.933594 284.945312 C 184.472656 284.945312 185.71875 286.191406 185.71875 287.730469 C 185.71875 289.269531 184.472656 290.515625 182.933594 290.515625 Z M 182.933594 283.3125 C 180.496094 283.3125 178.515625 285.292969 178.515625 287.730469 C 178.515625 290.171875 180.496094 292.148438 182.933594 292.148438 C 185.375 292.148438 187.351562 290.171875 187.351562 287.730469 C 187.351562 285.292969 185.375 283.3125 182.933594 283.3125 " fill-opacity="1" fill-rule="nonzero"/><path fill="#ffffff" d="M 85.53125 260.84375 C 83.992188 260.84375 82.746094 259.597656 82.746094 258.058594 C 82.746094 256.519531 83.992188 255.273438 85.53125 255.273438 C 87.066406 255.273438 88.316406 256.519531 88.316406 258.058594 C 88.316406 259.597656 87.066406 260.84375 85.53125 260.84375 Z M 85.53125 253.640625 C 83.089844 253.640625 81.113281 255.617188 81.113281 258.058594 C 81.113281 260.496094 83.089844 262.476562 85.53125 262.476562 C 87.96875 262.476562 89.949219 260.496094 89.949219 258.058594 C 89.949219 255.617188 87.96875 253.640625 85.53125 253.640625 " fill-opacity="1" fill-rule="nonzero"/><g clip-path="url(#e771c72ae0)"><path fill="#ffffff" d="M 95.410156 333.800781 L 38.105469 333.800781 L 0 371.863281 L 0 374.976562 L 39.019531 336.003906 L 96.324219 336.003906 L 117.691406 314.636719 L 205.230469 314.636719 L 205.230469 312.433594 L 116.777344 312.433594 Z M 82.304688 259.332031 L 82.304688 257.125 L 28.417969 257.125 L 0 228.710938 L 0 231.828125 L 27.503906 259.332031 Z M 156.878906 269.082031 L 141.191406 284.773438 L 113.289062 284.773438 L 100.140625 271.621094 L 0 271.621094 L 0 273.828125 L 99.226562 273.828125 L 112.375 286.976562 L 142.105469 286.976562 L 157.792969 271.289062 L 250.589844 271.289062 L 250.589844 269.082031 Z M 38.257812 234.96875 L 95.5625 234.96875 L 116.929688 256.335938 L 205.230469 256.335938 L 205.230469 254.863281 L 117.539062 254.863281 L 96.171875 233.496094 L 38.867188 233.496094 L 0 194.5 L 0 196.582031 L 38.042969 234.753906 Z M 98.449219 305.300781 L 98.664062 305.515625 L 166.539062 305.515625 L 180.675781 291.378906 L 179.636719 290.339844 L 165.929688 304.042969 L 99.273438 304.042969 L 82.609375 287.378906 L 0 287.378906 L 0 288.847656 L 82 288.847656 Z M 73.824219 306.789062 L 73.824219 305.320312 L 20.800781 305.320312 L 0 326.125 L 0 328.203125 L 21.410156 306.789062 L 73.824219 306.789062 " fill-opacity="1" fill-rule="nonzero"/></g><g clip-path="url(#e49d1ee458)"><path fill="#ffbe00" d="M 185.523438 30.402344 L 151.632812 46.804688 L 120.378906 34.175781 L 59.898438 54.789062 C 59.898438 54.789062 75.851562 86.683594 72.53125 120.578125 C 69.207031 154.476562 42.503906 236.25 59.234375 262.152344 C 79.839844 294.054688 137.667969 312.664062 157.609375 323.300781 C 168.777344 329.257812 178.777344 335.765625 185.523438 340.402344 C 192.273438 335.765625 202.269531 329.257812 213.441406 323.300781 C 233.382812 312.664062 291.207031 294.058594 311.8125 262.152344 C 328.542969 236.246094 301.84375 154.472656 298.519531 120.578125 C 295.195312 86.6875 311.148438 54.789062 311.148438 54.789062 L 250.667969 34.175781 L 219.414062 46.804688 Z M 185.523438 30.402344 " fill-opacity="1" fill-rule="nonzero"/></g><g clip-path="url(#416e9a9396)"><path fill="#000000" d="M 185.679688 39.257812 L 153.691406 54.734375 L 124.191406 42.820312 L 67.105469 62.265625 C 67.105469 62.265625 82.160156 92.351562 79.027344 124.328125 C 75.890625 156.300781 50.683594 233.4375 66.476562 257.875 C 85.925781 287.96875 140.507812 305.519531 159.328125 315.550781 C 169.871094 321.171875 179.308594 327.3125 185.679688 331.6875 C 192.046875 327.3125 201.484375 321.171875 212.027344 315.550781 C 230.847656 305.519531 285.429688 287.96875 304.878906 257.875 C 320.671875 233.433594 295.46875 156.296875 292.332031 124.328125 C 289.195312 92.355469 304.253906 62.265625 304.253906 62.265625 L 247.167969 42.820312 L 217.667969 54.734375 Z M 185.679688 39.257812 " fill-opacity="1" fill-rule="nonzero"/></g><g clip-path="url(#d481b5d5b2)"><path fill="#ffffff" d="M 182.855469 116.507812 C 182.855469 100.875 167.957031 94.386719 159.984375 94.386719 C 155.191406 94.386719 145.679688 97.613281 140.472656 104.550781 C 137.917969 107.953125 136.769531 111.828125 137.070312 115.921875 C 132.320312 115.230469 124.609375 115.0625 119.914062 122.605469 C 116.535156 128.035156 116.183594 132.507812 116.550781 135.425781 C 111.621094 136.03125 102.832031 138.445312 99.441406 147.84375 C 96.886719 154.90625 97.335938 162.191406 99.5 167.992188 C 99.503906 168.003906 99.503906 168.019531 99.507812 168.03125 C 99.992188 169.664062 100.855469 171.421875 102.109375 173.136719 C 102.125 173.160156 102.144531 173.183594 102.160156 173.207031 C 102.25 173.328125 102.335938 173.449219 102.429688 173.566406 C 102.941406 174.28125 103.480469 174.957031 104.054688 175.558594 C 101.816406 177.375 100.53125 180.003906 100.234375 184.820312 C 99.894531 190.234375 102.246094 196.765625 106.339844 200.125 C 103.546875 202.980469 101.085938 207.273438 101.691406 216.300781 C 102.246094 221.863281 105.363281 227.507812 109.824219 231.035156 C 112.167969 232.886719 114.777344 234.011719 117.417969 234.425781 C 117.589844 234.484375 117.769531 234.523438 117.957031 234.542969 C 118.019531 234.546875 118.09375 234.546875 118.15625 234.550781 C 118.230469 234.558594 118.308594 234.582031 118.382812 234.589844 C 118.832031 237.199219 120.277344 240.117188 121.964844 242.300781 C 124.730469 245.890625 128.28125 247.964844 132.140625 248.300781 C 133.273438 252.730469 135.816406 259.375 143.300781 260.277344 C 143.882812 264.472656 145.332031 267.957031 147.660156 270.664062 C 150.566406 274.039062 154.703125 276 159.625 276.339844 C 160.121094 276.371094 160.617188 276.390625 161.117188 276.390625 C 167 276.390625 173.074219 274.050781 177.277344 270.101562 C 180.898438 266.699219 182.875 262.316406 182.847656 257.773438 L 182.847656 160.5 C 182.847656 160.496094 182.847656 160.496094 182.847656 160.492188 L 182.847656 116.757812 C 182.847656 116.671875 182.855469 116.59375 182.855469 116.507812 Z M 177.601562 154.140625 C 175.433594 152.875 172.792969 151.933594 170.058594 151.570312 C 162.671875 150.582031 156.382812 153.953125 152.75 160.90625 C 148.589844 169.664062 151.878906 176.265625 154.207031 179.421875 C 157.230469 183.515625 161.839844 186.242188 165.550781 186.242188 C 165.890625 186.242188 166.226562 186.21875 166.550781 186.171875 C 167.984375 185.964844 168.976562 184.632812 168.769531 183.199219 C 168.558594 181.765625 167.226562 180.765625 165.796875 180.980469 C 164.535156 181.164062 160.980469 179.761719 158.425781 176.308594 C 156.433594 173.605469 154.652344 169.128906 157.441406 163.246094 C 160.605469 157.203125 165.4375 156.355469 168.929688 156.71875 C 173.828125 157.21875 177.15625 159.980469 177.601562 160.988281 L 177.601562 257.792969 C 177.628906 261.742188 175.488281 264.585938 173.6875 266.277344 C 170.15625 269.59375 164.902344 271.433594 159.984375 271.105469 C 157.550781 270.9375 154.128906 270.128906 151.636719 267.238281 C 148.996094 264.171875 147.863281 259.253906 148.351562 253.136719 C 148.707031 250.335938 152.210938 244.769531 156.886719 242.429688 C 159.570312 241.089844 162.132812 241.09375 164.5 242.441406 C 165.761719 243.160156 167.363281 242.714844 168.078125 241.457031 C 168.792969 240.199219 168.351562 238.59375 167.09375 237.878906 C 163.164062 235.644531 158.824219 235.597656 154.539062 237.738281 C 154.445312 237.785156 154.359375 237.851562 154.269531 237.902344 C 153.136719 236.742188 151.4375 235.949219 149.308594 235.703125 C 145.722656 235.296875 141.765625 236.511719 141.121094 239.625 C 140.828125 241.046875 141.738281 242.433594 143.15625 242.726562 C 144.398438 242.988281 145.625 242.3125 146.101562 241.1875 C 146.605469 240.957031 147.894531 240.726562 149.207031 240.996094 C 149.433594 241.042969 149.625 241.097656 149.789062 241.152344 C 146.140625 244.597656 143.570312 249.167969 143.136719 252.597656 C 143.070312 253.378906 143.046875 254.132812 143.027344 254.882812 C 139.078125 253.871094 137.828125 249.859375 136.785156 245.121094 L 136.289062 242.863281 L 133.988281 243.070312 C 130.644531 243.378906 128.179688 241.464844 126.710938 239.8125 C 125.039062 237.929688 124.105469 235.804688 123.707031 234.359375 C 131.085938 233.273438 140.1875 228.683594 142.589844 216.148438 C 143.40625 215.855469 144.226562 215.5 145.046875 215.003906 C 145.089844 214.976562 145.125 214.945312 145.167969 214.914062 C 148.167969 213.238281 151.304688 210.523438 153.414062 207.035156 C 155.875 202.96875 156.523438 198.597656 155.292969 194.394531 C 154.882812 193.003906 153.429688 192.207031 152.039062 192.617188 C 150.648438 193.023438 149.851562 194.480469 150.257812 195.871094 C 151.078125 198.664062 150.628906 201.507812 148.925781 204.320312 C 147.222656 207.136719 144.496094 209.414062 142.101562 210.628906 C 142.039062 210.664062 141.976562 210.691406 141.914062 210.722656 C 141.144531 211.097656 140.40625 211.367188 139.757812 211.496094 C 134.148438 212.5625 128.539062 207.195312 128.472656 207.136719 C 127.441406 206.125 125.785156 206.140625 124.769531 207.171875 C 123.753906 208.203125 123.765625 209.867188 124.800781 210.878906 C 125.105469 211.179688 130.410156 216.296875 137.035156 216.878906 C 134.886719 224.703125 129.332031 227.667969 124.847656 228.757812 L 120.667969 229.320312 C 120.410156 229.355469 120.164062 229.359375 119.910156 229.371094 C 119.316406 229.375 118.882812 229.351562 118.652344 229.335938 C 118.625 229.332031 118.601562 229.332031 118.574219 229.328125 C 118.535156 229.324219 118.5 229.320312 118.480469 229.320312 C 118.472656 229.320312 118.46875 229.320312 118.460938 229.320312 C 116.230469 229.035156 114.359375 227.933594 113.074219 226.917969 C 109.742188 224.285156 107.324219 219.914062 106.917969 215.867188 C 106.3125 206.808594 109.21875 204.394531 112.292969 201.835938 L 116.613281 198.234375 L 111.492188 197.035156 C 108.191406 196.257812 105.152344 190.261719 105.46875 185.148438 C 105.734375 180.902344 106.691406 179.78125 108.515625 178.851562 C 111.226562 180.453125 114.550781 181.691406 118.550781 182.238281 C 119.476562 182.367188 120.375 182.425781 121.25 182.425781 C 124.265625 182.425781 126.96875 181.714844 129.332031 180.683594 C 130.535156 181.394531 133.019531 183.511719 132.871094 186.394531 C 132.648438 190.746094 129.597656 194.046875 129.519531 194.128906 C 128.523438 195.171875 128.554688 196.828125 129.597656 197.832031 C 130.105469 198.320312 130.761719 198.566406 131.417969 198.566406 C 132.105469 198.566406 132.789062 198.296875 133.304688 197.761719 C 133.488281 197.574219 137.785156 193.046875 138.109375 186.664062 C 138.300781 182.988281 136.425781 179.917969 134.203125 177.847656 C 137.585938 175.339844 139.558594 172.695312 139.722656 172.46875 C 140.574219 171.296875 140.3125 169.65625 139.140625 168.804688 C 137.96875 167.953125 136.328125 168.214844 135.476562 169.386719 C 135.433594 169.445312 132.609375 173.246094 127.992188 175.511719 C 127.992188 175.515625 127.992188 175.515625 127.992188 175.515625 C 127.992188 175.515625 127.992188 175.515625 127.988281 175.515625 C 125.539062 176.71875 122.589844 177.5 119.265625 177.042969 C 116.601562 176.675781 114.363281 175.945312 112.484375 175.019531 L 110.640625 173.996094 C 108.828125 172.828125 107.453125 171.476562 106.457031 170.164062 C 103.332031 165.523438 101.503906 157.558594 104.375 149.625 C 107.246094 141.664062 115.855469 140.621094 118.792969 140.492188 L 126.554688 148.507812 C 124.875 149.480469 122.867188 150.070312 120.476562 150.179688 C 119.027344 150.246094 117.910156 151.472656 117.976562 152.921875 C 118.039062 154.328125 119.199219 155.425781 120.59375 155.425781 C 120.632812 155.425781 120.675781 155.421875 120.714844 155.421875 C 125.839844 155.1875 129.929688 153.40625 132.875 150.128906 C 138.007812 144.417969 137.566406 136.261719 137.546875 135.917969 C 137.457031 134.472656 136.21875 133.378906 134.769531 133.460938 C 133.320312 133.550781 132.222656 134.792969 132.3125 136.238281 C 132.3125 136.292969 132.511719 140.941406 130.273438 144.804688 L 122.109375 136.378906 C 121.722656 135.363281 120.628906 131.382812 124.367188 125.375 C 127.714844 119.996094 133.316406 120.527344 138.304688 121.449219 C 138.621094 121.507812 138.914062 121.5625 139.183594 121.609375 L 145.585938 127.109375 C 146.082031 127.535156 146.691406 127.742188 147.296875 127.742188 C 148.03125 127.742188 148.765625 127.433594 149.285156 126.828125 C 150.230469 125.730469 150.105469 124.074219 149.003906 123.128906 L 142.65625 117.675781 C 141.785156 114.015625 142.449219 110.660156 144.667969 107.699219 C 148.703125 102.328125 156.660156 99.632812 159.984375 99.632812 C 164.683594 99.632812 177.570312 103.621094 177.605469 116.457031 C 177.605469 116.472656 177.601562 116.484375 177.601562 116.5 L 177.601562 116.695312 C 177.519531 128.207031 170.039062 130.933594 169.132812 131.210938 C 167.964844 131.148438 166.960938 131.886719 166.585938 133.003906 C 166.128906 134.378906 166.871094 135.863281 168.246094 136.324219 C 170.59375 137.101562 174.453125 134.402344 174.882812 134.09375 C 175.6875 133.515625 176.640625 132.707031 177.601562 131.648438 Z M 177.601562 154.140625 " fill-opacity="1" fill-rule="nonzero"/></g><g clip-path="url(#c722ac5d16)"><path fill="#ffffff" d="M 274.042969 184.867188 L 274.027344 184.6875 C 273.496094 180.019531 271.726562 177.320312 269.582031 175.578125 C 275.082031 169.824219 278.089844 158.5625 274.21875 147.84375 C 270.824219 138.441406 262.039062 136.027344 257.109375 135.425781 C 257.472656 132.507812 257.125 128.035156 253.746094 122.605469 C 249.066406 115.085938 241.386719 115.230469 236.636719 115.914062 C 237.070312 111.449219 235.9375 107.308594 233.277344 103.769531 C 228.4375 97.320312 219.722656 94.386719 213.675781 94.386719 C 205.699219 94.386719 190.800781 100.875 190.800781 116.507812 C 190.800781 116.582031 190.808594 116.65625 190.808594 116.730469 L 190.808594 257.757812 C 190.78125 262.316406 192.757812 266.699219 196.378906 270.101562 C 200.582031 274.050781 206.660156 276.390625 212.539062 276.390625 C 213.039062 276.390625 213.535156 276.371094 214.03125 276.335938 C 223.027344 275.722656 228.992188 269.769531 230.351562 260.277344 C 237.808594 259.382812 240.363281 252.789062 241.5 248.359375 C 245.308594 248.210938 248.679688 246.792969 251.160156 244.265625 C 253.667969 241.710938 255.148438 238.105469 255.324219 234.277344 C 265.222656 232.851562 271.136719 227.039062 272.066406 217.707031 C 272.765625 210.621094 271.074219 204.710938 267.027344 200.085938 C 270.941406 197.351562 274.40625 192.996094 274.042969 184.867188 Z M 200.761719 261.265625 C 199.425781 261.265625 198.339844 260.179688 198.339844 258.84375 C 198.339844 257.507812 199.425781 256.425781 200.761719 256.425781 C 202.097656 256.425781 203.179688 257.507812 203.179688 258.84375 C 203.179688 260.179688 202.097656 261.265625 200.761719 261.265625 Z M 199.609375 263.40625 L 199.609375 265.917969 C 198.414062 264.714844 197.15625 263.027344 196.507812 260.851562 C 197.105469 262.109375 198.234375 263.058594 199.609375 263.40625 Z M 261.546875 197.261719 L 258.058594 199.078125 L 261.082031 201.601562 C 263.980469 204.019531 267.730469 208.261719 266.847656 217.1875 C 266.089844 224.746094 261.386719 228.710938 252.460938 229.304688 L 249.730469 229.484375 L 250.027344 232.207031 C 250.382812 235.429688 249.40625 238.5625 247.414062 240.589844 C 245.941406 242.09375 243.972656 242.941406 241.640625 243.09375 L 240.816406 215.726562 L 248.429688 208.808594 C 249.402344 209.46875 250.574219 209.855469 251.835938 209.855469 C 255.183594 209.855469 257.90625 207.132812 257.90625 203.785156 C 257.90625 200.4375 255.183594 197.710938 251.835938 197.710938 C 248.484375 197.710938 245.761719 200.4375 245.761719 203.785156 C 245.761719 205.042969 246.144531 206.210938 246.804688 207.183594 L 238.484375 214.734375 L 239.339844 243.042969 L 237.367188 242.863281 L 236.871094 245.121094 C 235.71875 250.359375 234.304688 254.707031 229.292969 255.101562 L 229.292969 231.421875 L 225.96875 228.304688 L 225.96875 216.273438 L 233.269531 209.078125 C 234.035156 209.613281 234.960938 209.9375 235.964844 209.9375 C 238.566406 209.9375 240.683594 207.820312 240.683594 205.21875 C 240.683594 202.617188 238.566406 200.5 235.964844 200.5 C 233.367188 200.5 231.246094 202.617188 231.246094 205.21875 C 231.246094 205.980469 231.445312 206.691406 231.769531 207.328125 L 223.671875 215.316406 L 223.671875 226.148438 L 219.324219 222.066406 L 219.324219 205.648438 C 221.367188 205.128906 222.890625 203.289062 222.890625 201.085938 C 222.890625 198.484375 220.773438 196.367188 218.175781 196.367188 C 215.574219 196.367188 213.457031 198.484375 213.457031 201.085938 C 213.457031 203.289062 214.980469 205.128906 217.023438 205.648438 L 217.023438 223.0625 L 226.996094 232.414062 L 226.996094 255.304688 C 226.753906 255.402344 226.535156 255.539062 226.335938 255.703125 C 226.296875 255.734375 226.253906 255.757812 226.21875 255.792969 C 226.207031 255.800781 226.199219 255.8125 226.191406 255.820312 C 225.832031 256.15625 225.566406 256.597656 225.441406 257.09375 C 225.425781 257.148438 225.425781 257.207031 225.414062 257.265625 C 225.394531 257.371094 225.367188 257.480469 225.359375 257.59375 C 225.011719 263.449219 222.800781 267.558594 219.019531 269.621094 L 214.402344 265.355469 L 214.402344 254.050781 C 216.445312 253.535156 217.96875 251.695312 217.96875 249.492188 C 217.96875 246.890625 215.851562 244.773438 213.25 244.773438 C 210.652344 244.773438 208.53125 246.890625 208.53125 249.492188 C 208.53125 251.695312 210.058594 253.535156 212.101562 254.050781 L 212.101562 266.363281 L 216.667969 270.578125 C 215.734375 270.847656 214.738281 271.03125 213.671875 271.105469 C 209.589844 271.378906 205.28125 270.136719 201.910156 267.808594 L 201.910156 263.40625 C 203.953125 262.886719 205.476562 261.046875 205.476562 258.84375 C 205.476562 256.246094 203.359375 254.125 200.757812 254.125 C 198.324219 254.125 196.335938 255.988281 196.089844 258.359375 C 196.082031 258.164062 196.054688 257.976562 196.054688 257.773438 L 196.054688 235.359375 L 198.144531 237.625 L 210.988281 237.625 C 211.527344 239.757812 213.445312 241.347656 215.746094 241.347656 C 218.460938 241.347656 220.667969 239.140625 220.667969 236.425781 C 220.667969 233.710938 218.460938 231.503906 215.746094 231.503906 C 213.445312 231.503906 211.527344 233.09375 210.988281 235.226562 L 199.195312 235.226562 L 196.054688 231.824219 L 196.054688 217.308594 L 200.433594 217.308594 C 200.96875 219.667969 203.074219 221.441406 205.597656 221.441406 C 208.523438 221.441406 210.902344 219.0625 210.902344 216.136719 C 210.902344 213.210938 208.523438 210.828125 205.597656 210.828125 C 203.074219 210.828125 200.96875 212.601562 200.429688 214.964844 L 196.054688 214.964844 L 196.054688 180.550781 C 198.726562 180.535156 201.261719 180.53125 203.921875 180.53125 L 203.921875 192.128906 C 202.421875 192.46875 201.296875 193.804688 201.296875 195.40625 C 201.296875 197.265625 202.804688 198.773438 204.664062 198.773438 C 206.519531 198.773438 208.03125 197.265625 208.03125 195.40625 C 208.03125 193.804688 206.90625 192.46875 205.40625 192.128906 L 205.40625 181.035156 C 208.109375 183.757812 210.742188 186.476562 213.382812 189.214844 L 214.40625 190.273438 L 215.476562 189.242188 L 214.453125 188.183594 C 212.972656 186.648438 211.496094 185.117188 210.007812 183.589844 L 221.597656 183.589844 C 221.941406 185.089844 223.277344 186.214844 224.878906 186.214844 C 226.734375 186.214844 228.246094 184.703125 228.246094 182.847656 C 228.246094 180.988281 226.734375 179.476562 224.878906 179.476562 C 223.277344 179.476562 221.9375 180.601562 221.597656 182.101562 L 208.542969 182.101562 C 207.613281 181.15625 206.6875 180.207031 205.742188 179.261719 L 205.523438 179.042969 L 205.214844 179.042969 C 202.058594 179.042969 199.15625 179.042969 196.054688 179.0625 L 196.054688 175.414062 C 204.609375 175.34375 213.179688 175.367188 221.597656 175.492188 C 221.933594 176.996094 223.273438 178.125 224.878906 178.125 C 226.734375 178.125 228.246094 176.613281 228.246094 174.757812 C 228.246094 172.898438 226.738281 171.390625 224.878906 171.390625 C 223.28125 171.390625 221.945312 172.507812 221.601562 174.003906 C 213.183594 173.882812 204.605469 173.859375 196.054688 173.925781 L 196.054688 167.507812 L 198.191406 169.820312 L 206.164062 169.820312 C 206.496094 171.144531 207.6875 172.132812 209.113281 172.132812 C 210.796875 172.132812 212.164062 170.761719 212.164062 169.078125 C 212.164062 167.394531 210.796875 166.023438 209.113281 166.023438 C 207.6875 166.023438 206.496094 167.011719 206.164062 168.335938 L 198.84375 168.335938 L 196.054688 165.316406 L 196.054688 156.980469 L 199.746094 155.242188 L 214.261719 160.632812 L 233.636719 151.492188 C 234.132812 152.128906 234.792969 152.621094 235.574219 152.902344 C 236.050781 153.074219 236.542969 153.160156 237.035156 153.160156 C 237.664062 153.160156 238.292969 153.019531 238.875 152.742188 C 241.027344 151.730469 241.957031 149.148438 240.941406 146.996094 C 240.449219 145.953125 239.578125 145.160156 238.492188 144.773438 C 237.410156 144.378906 236.234375 144.4375 235.191406 144.929688 C 234.148438 145.421875 233.359375 146.292969 232.96875 147.378906 C 232.6875 148.15625 232.648438 148.980469 232.824219 149.769531 L 214.171875 158.566406 L 202.160156 154.101562 L 213.492188 148.753906 L 216.746094 139.546875 L 231.4375 132.617188 C 232.265625 133.671875 233.507812 134.292969 234.820312 134.292969 C 235.4375 134.292969 236.0625 134.160156 236.652344 133.878906 C 238.808594 132.863281 239.734375 130.285156 238.71875 128.128906 C 237.703125 125.976562 235.121094 125.050781 232.96875 126.066406 C 231.113281 126.941406 230.175781 128.980469 230.601562 130.90625 L 215.214844 138.164062 L 211.960938 147.371094 L 196.054688 154.871094 L 196.054688 131.644531 C 197.015625 132.707031 197.96875 133.511719 198.773438 134.09375 C 199.207031 134.402344 203.046875 137.109375 205.414062 136.324219 C 206.789062 135.867188 207.527344 134.378906 207.070312 133.003906 C 206.707031 131.90625 205.679688 131.210938 204.582031 131.210938 C 204.5625 131.210938 204.546875 131.210938 204.527344 131.210938 C 203.617188 130.933594 196.132812 128.207031 196.054688 116.671875 L 196.054688 116.5 C 196.054688 116.488281 196.050781 116.472656 196.050781 116.460938 C 196.082031 104.8125 206.671875 100.460938 212.152344 99.75 L 210.464844 101.308594 L 210.464844 113.882812 C 208.394531 114.324219 206.835938 116.164062 206.835938 118.363281 C 206.835938 120.886719 208.894531 122.945312 211.417969 122.945312 C 213.945312 122.945312 216 120.886719 216 118.363281 C 216 116.164062 214.441406 114.324219 212.371094 113.882812 L 212.371094 102.144531 L 215.007812 99.710938 C 219.789062 100.105469 225.800781 102.546875 229.082031 106.917969 C 231.386719 109.984375 232.015625 113.613281 230.996094 117.710938 L 227.953125 120.667969 C 226.914062 121.675781 226.890625 123.339844 227.902344 124.375 C 228.417969 124.90625 229.097656 125.171875 229.78125 125.171875 C 230.441406 125.171875 231.101562 124.925781 231.609375 124.429688 L 234.519531 121.601562 C 234.777344 121.558594 235.050781 121.507812 235.347656 121.453125 C 240.339844 120.53125 245.941406 119.996094 249.292969 125.375 C 252.921875 131.210938 251.996094 135.125 251.597656 136.25 L 248.898438 138.527344 C 247.792969 139.464844 247.652344 141.121094 248.585938 142.226562 C 249.105469 142.839844 249.847656 143.15625 250.59375 143.15625 C 251.191406 143.15625 251.792969 142.953125 252.285156 142.535156 L 254.710938 140.488281 C 257.445312 140.578125 265.976562 141.507812 269.078125 149.152344 L 246.347656 149.152344 L 233.480469 162.40625 L 233.480469 175.804688 C 231.222656 176.320312 229.53125 178.332031 229.53125 180.742188 C 229.53125 183.539062 231.804688 185.8125 234.601562 185.8125 C 237.398438 185.8125 239.675781 183.539062 239.675781 180.742188 C 239.675781 178.332031 237.980469 176.320312 235.722656 175.804688 L 235.722656 163.3125 L 247.296875 151.390625 L 269.835938 151.390625 C 271.445312 157.214844 270.65625 162.910156 268.8125 167.164062 L 250.554688 167.164062 L 243.101562 175.769531 L 243.101562 184 C 240.84375 184.511719 239.148438 186.527344 239.148438 188.9375 C 239.148438 191.730469 241.425781 194.007812 244.222656 194.007812 C 247.015625 194.007812 249.292969 191.730469 249.292969 188.9375 C 249.292969 186.527344 247.601562 184.511719 245.34375 184 L 245.34375 176.605469 L 251.578125 169.402344 L 267.671875 169.402344 C 266.648438 171.109375 265.457031 172.441406 264.226562 173.269531 L 256.761719 173.269531 C 255.3125 173.269531 254.136719 174.441406 254.136719 175.890625 C 254.136719 177.339844 255.3125 178.515625 256.761719 178.515625 L 264.402344 178.515625 C 266.933594 179.730469 268.335938 181.21875 268.808594 185.191406 C 269.078125 191.945312 266.230469 194.820312 261.546875 197.261719 Z M 248.0625 203.785156 C 248.0625 201.703125 249.753906 200.011719 251.835938 200.011719 C 253.917969 200.011719 255.609375 201.703125 255.609375 203.785156 C 255.609375 205.867188 253.917969 207.558594 251.835938 207.558594 C 249.753906 207.558594 248.0625 205.867188 248.0625 203.785156 Z M 233.546875 205.21875 C 233.546875 203.882812 234.632812 202.796875 235.96875 202.796875 C 237.300781 202.796875 238.386719 203.882812 238.386719 205.21875 C 238.386719 206.554688 237.300781 207.636719 235.96875 207.636719 C 234.632812 207.636719 233.546875 206.554688 233.546875 205.21875 Z M 218.175781 203.507812 C 216.839844 203.507812 215.753906 202.421875 215.753906 201.085938 C 215.753906 199.75 216.839844 198.667969 218.175781 198.667969 C 219.511719 198.667969 220.59375 199.75 220.59375 201.085938 C 220.59375 202.421875 219.507812 203.507812 218.175781 203.507812 Z M 213.253906 251.910156 C 211.917969 251.910156 210.832031 250.828125 210.832031 249.492188 C 210.832031 248.15625 211.917969 247.070312 213.253906 247.070312 C 214.589844 247.070312 215.671875 248.15625 215.671875 249.492188 C 215.671875 250.828125 214.589844 251.910156 213.253906 251.910156 Z M 213.222656 236.425781 C 213.222656 235.035156 214.355469 233.902344 215.746094 233.902344 C 217.140625 233.902344 218.273438 235.035156 218.273438 236.425781 C 218.273438 237.816406 217.140625 238.949219 215.746094 238.949219 C 214.355469 238.949219 213.222656 237.816406 213.222656 236.425781 Z M 202.636719 216.136719 C 202.636719 214.503906 203.964844 213.171875 205.597656 213.171875 C 207.234375 213.171875 208.5625 214.503906 208.5625 216.136719 C 208.5625 217.769531 207.234375 219.101562 205.597656 219.101562 C 203.964844 219.097656 202.636719 217.769531 202.636719 216.136719 Z M 204.664062 193.527344 C 205.699219 193.527344 206.542969 194.371094 206.542969 195.410156 C 206.542969 196.445312 205.699219 197.289062 204.664062 197.289062 C 203.628906 197.289062 202.78125 196.445312 202.78125 195.410156 C 202.78125 194.371094 203.628906 193.527344 204.664062 193.527344 Z M 222.996094 182.847656 C 222.996094 181.808594 223.84375 180.964844 224.878906 180.964844 C 225.914062 180.964844 226.761719 181.808594 226.761719 182.847656 C 226.761719 183.882812 225.914062 184.726562 224.878906 184.726562 C 223.84375 184.726562 222.996094 183.882812 222.996094 182.847656 Z M 222.996094 174.757812 C 222.996094 173.722656 223.84375 172.878906 224.878906 172.878906 C 225.914062 172.878906 226.761719 173.722656 226.761719 174.757812 C 226.761719 175.792969 225.914062 176.636719 224.878906 176.636719 C 223.84375 176.636719 222.996094 175.792969 222.996094 174.757812 Z M 207.546875 169.078125 C 207.546875 168.214844 208.25 167.511719 209.113281 167.511719 C 209.976562 167.511719 210.679688 168.214844 210.679688 169.078125 C 210.679688 169.941406 209.976562 170.644531 209.113281 170.644531 C 208.25 170.644531 207.546875 169.941406 207.546875 169.078125 Z M 234.761719 148.023438 C 234.980469 147.417969 235.421875 146.929688 236.003906 146.65625 C 236.332031 146.5 236.679688 146.421875 237.03125 146.421875 C 237.304688 146.421875 237.582031 146.46875 237.847656 146.566406 C 238.457031 146.785156 238.941406 147.226562 239.214844 147.808594 C 239.78125 149.011719 239.265625 150.449219 238.0625 151.019531 C 237.480469 151.289062 236.828125 151.328125 236.21875 151.105469 C 235.613281 150.890625 235.125 150.449219 234.851562 149.863281 C 234.578125 149.285156 234.542969 148.628906 234.761719 148.023438 Z M 233.78125 127.789062 C 234.113281 127.632812 234.460938 127.5625 234.808594 127.5625 C 235.710938 127.5625 236.582031 128.070312 236.992188 128.941406 C 237.5625 130.144531 237.042969 131.585938 235.839844 132.15625 C 234.636719 132.722656 233.195312 132.203125 232.628906 131 C 232.0625 129.800781 232.578125 128.359375 233.78125 127.789062 Z M 211.417969 115.691406 C 212.890625 115.691406 214.09375 116.890625 214.09375 118.363281 C 214.09375 119.835938 212.890625 121.035156 211.417969 121.035156 C 209.945312 121.035156 208.742188 119.835938 208.742188 118.363281 C 208.742188 116.890625 209.945312 115.691406 211.417969 115.691406 Z M 234.601562 177.910156 C 236.160156 177.910156 237.433594 179.179688 237.433594 180.742188 C 237.433594 182.304688 236.160156 183.574219 234.601562 183.574219 C 233.039062 183.574219 231.769531 182.304688 231.769531 180.742188 C 231.769531 179.179688 233.039062 177.910156 234.601562 177.910156 Z M 244.21875 186.105469 C 245.78125 186.105469 247.050781 187.375 247.050781 188.9375 C 247.050781 190.496094 245.78125 191.765625 244.21875 191.765625 C 242.660156 191.765625 241.390625 190.496094 241.390625 188.9375 C 241.390625 187.375 242.660156 186.105469 244.21875 186.105469 Z M 244.21875 186.105469 " fill-opacity="1" fill-rule="nonzero"/></g></svg>